<svg width="1245" height="196" viewBox="0 0 1245 196" fill="none" xmlns="http://www.w3.org/2000/svg">
<path d="M71.0034 300.636C48.9969 300.636 31.687 293.927 19.0736 280.508C6.46012 266.821 0.153399 248.438 0.153399 225.358V87.6833H56.9139V216.099C56.9139 227.102 59.5976 235.69 64.965 241.863C70.3324 247.767 77.5785 250.719 86.7031 250.719C96.0961 250.719 104.952 247.767 113.272 241.863C121.591 235.958 128.569 228.041 134.205 218.112V87.6833H190.965V295H134.205V267.626C127.227 277.019 118.773 284.936 108.844 291.377C98.914 297.55 86.3005 300.636 71.0034 300.636ZM267.303 53.466V1.13364H332.115V53.466H267.303ZM235.904 295V246.291H274.549V136.393H235.904V87.6833H331.31V246.291H365.93V295H235.904ZM434.682 295L374.298 87.6833H432.267L469.302 224.955L509.155 88.891L573.161 83.6577L616.235 228.981L654.075 87.6833H708.018L644.816 295H582.823L540.152 144.444L495.468 295H434.682ZM765.782 53.466V1.13364H830.593V53.466H765.782ZM734.382 295V246.291H773.028V136.393H734.382V87.6833H829.788V246.291H864.408V295H734.382ZM1033.66 301.038L958.782 204.827V295H902.022V0.731093H958.782V163.364L1023.59 87.6833H1090.82L1007.89 180.674L1095.25 292.585L1033.66 301.038ZM1145.54 53.466V1.13364H1210.35V53.466H1145.54ZM1114.14 295V246.291H1152.78V136.393H1114.14V87.6833H1209.54V246.291H1244.16V295H1114.14Z" fill="white" fill-opacity="0.1"/>
</svg>
